<svg xmlns="http://www.w3.org/2000/svg" width="1600" height="900" viewBox="0 0 1600 900" role="img" aria-labelledby="title desc">
  <title id="title">给 OpenClaw 装上真正可控的 Web Search</title>
  <desc id="desc">OpenClaw 集成 Camofox Web Search 教程文章封面</desc>
  <defs>
    <linearGradient id="bg" x1="0" y1="0" x2="1" y2="1">
      <stop offset="0" stop-color="#061826"/>
      <stop offset="0.55" stop-color="#0b3444"/>
      <stop offset="1" stop-color="#0f766e"/>
    </linearGradient>
    <radialGradient id="glow" cx="50%" cy="50%" r="50%">
      <stop offset="0" stop-color="#67e8f9" stop-opacity=".44"/>
      <stop offset="1" stop-color="#67e8f9" stop-opacity="0"/>
    </radialGradient>
    <filter id="shadow" x="-30%" y="-30%" width="160%" height="160%">
      <feDropShadow dx="0" dy="18" stdDeviation="24" flood-color="#001018" flood-opacity=".45"/>
    </filter>
  </defs>
  <rect width="1600" height="900" fill="url(#bg)"/>
  <circle cx="1260" cy="180" r="420" fill="url(#glow)"/>
  <circle cx="150" cy="810" r="330" fill="url(#glow)" opacity=".45"/>
  <g opacity=".17" stroke="#a5f3fc" stroke-width="2">
    <path d="M0 120H1600M0 240H1600M0 360H1600M0 480H1600M0 600H1600M0 720H1600"/>
    <path d="M160 0V900M320 0V900M480 0V900M640 0V900M800 0V900M960 0V900M1120 0V900M1280 0V900M1440 0V900"/>
  </g>
  <g font-family="-apple-system,BlinkMacSystemFont,'PingFang SC','Microsoft YaHei',sans-serif">
    <rect x="92" y="104" width="256" height="50" rx="25" fill="#14b8a6"/>
    <text x="220" y="138" text-anchor="middle" font-size="23" font-weight="750" fill="#ecfeff">实践教程 · OPENCLAW</text>
    <text x="92" y="260" font-size="70" font-weight="850" fill="#f0fdfa">给 OpenClaw 装上</text>
    <text x="92" y="356" font-size="82" font-weight="850" fill="#67e8f9">真正可控的 Web Search</text>
    <text x="96" y="430" font-size="30" fill="#bae6fd">原生 web_search / web_fetch · 自托管 · SecretRef · 可验证</text>
    <rect x="94" y="508" width="630" height="206" rx="28" fill="#ffffff" fill-opacity=".08" stroke="#5eead4" stroke-opacity=".55"/>
    <text x="132" y="568" font-size="25" font-weight="700" fill="#ccfbf1">从零完成四件事</text>
    <text x="132" y="620" font-size="24" fill="#dbeafe">① 部署 Gateway　② 安装原生 Provider</text>
    <text x="132" y="668" font-size="24" fill="#dbeafe">③ 做一次带引用的真实检索　④ 完整验收</text>
    <text x="94" y="810" font-size="25" font-weight="650" fill="#99f6e4">Camofox Web Search</text>
  </g>
  <g transform="translate(1010 198)" filter="url(#shadow)">
    <rect width="430" height="490" rx="48" fill="#f8fafc"/>
    <rect x="46" y="50" width="338" height="76" rx="22" fill="#e0f2fe"/>
    <circle cx="89" cy="88" r="18" fill="#0ea5e9"/>
    <text x="124" y="98" font-family="ui-monospace,SFMono-Regular,Menlo,monospace" font-size="26" font-weight="700" fill="#0c4a6e">OpenClaw</text>
    <path d="M215 150v46" stroke="#0f766e" stroke-width="8" stroke-linecap="round"/>
    <path d="M197 180l18 18 18-18" fill="none" stroke="#0f766e" stroke-width="8" stroke-linecap="round" stroke-linejoin="round"/>
    <rect x="46" y="216" width="338" height="112" rx="22" fill="#ccfbf1"/>
    <text x="76" y="262" font-family="ui-monospace,SFMono-Regular,Menlo,monospace" font-size="22" font-weight="700" fill="#115e59">web_search</text>
    <text x="76" y="302" font-family="ui-monospace,SFMono-Regular,Menlo,monospace" font-size="22" font-weight="700" fill="#115e59">web_fetch</text>
    <path d="M215 347v42" stroke="#0f766e" stroke-width="8" stroke-linecap="round"/>
    <path d="M197 373l18 18 18-18" fill="none" stroke="#0f766e" stroke-width="8" stroke-linecap="round" stroke-linejoin="round"/>
    <rect x="46" y="406" width="338" height="48" rx="24" fill="#0f766e"/>
    <text x="215" y="438" text-anchor="middle" font-family="-apple-system,BlinkMacSystemFont,'PingFang SC',sans-serif" font-size="20" font-weight="750" fill="#f0fdfa">Camofox Gateway</text>
  </g>
</svg>
